:SAMPLES-PER-SECOND 25
:FULLY-SPECIFIED
:DEGREES
664
root  5.30296 74.5831 -26.9729 178.864 7.14594 -176.573
RightUpLeg  -13.3324 3.99813 7.78932
RightLeg  17.5455 3.09083 0.806321
RightFoot  -4.09254 0.126546 -2.43518
RightToes  2.84633e-005 7.89722e-005 -0.000426369
Spine  7.39052 -0.91159 5.52319
Spine1  14.7735 -2.27932 7.35135
HEad  33.7687 -2.63439 -6.96811
LeftShoulder1  -3.88251e-019 0 -3.92111e-022
LeftArm  -30.6677 -1.34563 -86.5029
LeftForeArm  33.1964 -4.36716 -2.79232
LeftHand  -1.02892 -5.74036 11.0229
RightShoulder  7.45443e-017 -2.42657e-020 1.96277e-018
RightArm  -8.43401 -5.37381 69.9193
RightForeArm  3.53485 19.9806 5.9322
RightHand  -1.94687 12.8135 -12.747
LeftUpLeg  -26.6711 0.959087 3.48363
LeftLeg  49.4528 5.55431 7.31535
LeftFoot  -8.30494 -0.0446635 3.58189
LeftToes  3.91355e-005 3.11907e-005 -4.10385e-006
665
root  5.28488 74.6619 -27.5363 178.959 9.51124 -177.228
RightUpLeg  -12.9267 3.39047 7.11751
RightLeg  18.2649 5.93082 1.97472
RightFoot  -4.52735 0.11966 -2.52451
RightToes  2.84633e-005 7.89722e-005 -0.000426369
Spine  8.00411 -0.610335 4.31782
Spine1  16.075 -1.75736 6.06945
HEad  33.3473 -1.52591 -5.75874
LeftShoulder1  -3.88251e-019 0 -3.92111e-022
LeftArm  -31.2703 -1.59923 -85.6139
LeftForeArm  33.3154 -4.71618 -2.8884
LeftHand  -1.06322 -5.58409 11.5331
RightShoulder  7.45443e-017 -2.42657e-020 1.96277e-018
RightArm  -7.44366 -2.42182 71.0408
RightForeArm  4.89742 19.7397 6.03606
RightHand  -1.9895 12.8298 -13.0086
LeftUpLeg  -28.0687 0.713342 3.36699
LeftLeg  39.7758 5.29798 5.08579
LeftFoot  -4.1465 -0.229862 4.0232
LeftToes  3.91355e-005 3.11907e-005 -4.10385e-006
666
root  5.24292 74.6918 -28.1094 179.559 12.2639 -177.212
RightUpLeg  -12.8329 2.83398 7.09149
RightLeg  18.8845 8.89605 3.18184
RightFoot  -4.95846 0.0970581 -2.34195
RightToes  2.84633e-005 7.89722e-005 -0.000426369
Spine  8.29851 -0.251901 3.22741
Spine1  16.6817 -1.01509 5.07693
HEad  34.0452 0.111781 -4.75253
LeftShoulder1  -3.88251e-019 0 -3.92111e-022
LeftArm  -31.3439 -0.809324 -85.0882
LeftForeArm  32.3059 -5.13551 -2.45087
LeftHand  -0.988397 -5.65235 10.6843
RightShoulder  7.45443e-017 -2.42657e-020 1.96277e-018
RightArm  -9.14496 0.889162 72.064
RightForeArm  10.1185 17.1358 7.32914
RightHand  -2.00895 12.7094 -13.2135
LeftUpLeg  -28.7643 1.29263 4.14803
LeftLeg  29.3228 3.00618 2.17294
LeftFoot  0.109183 -0.379659 3.77911
LeftToes  3.91355e-005 3.11907e-005 -4.10385e-006
667
root  5.16296 74.6511 -28.6271 -179.708 16.2875 -177.003
RightUpLeg  -13.1219 3.44587 7.24952
RightLeg  20.0468 11.7157 4.49206
RightFoot  -5.61947 0.0882316 -2.5269
RightToes  2.84633e-005 7.89722e-005 -0.000426369
Spine  8.54691 0.189592 2.19883
Spine1  17.1556 -0.00571757 4.17041
HEad  34.6378 2.33673 -3.9327
LeftShoulder1  -3.88251e-019 0 -3.92111e-022
LeftArm  -31.8665 0.383765 -84.3593
LeftForeArm  30.9548 -5.07801 -2.09418
LeftHand  -1.06915 -5.73345 11.4473
RightShoulder  7.45443e-017 -2.42657e-020 1.96277e-018
RightArm  -13.948 4.82063 73.0891
RightForeArm  19.9472 12.4405 8.83329
RightHand  -1.99513 12.4343 -13.3229
LeftUpLeg  -28.7495 2.74493 5.60367
LeftLeg  20.4159 0.280276 0.442909
LeftFoot  4.80626 -0.360376 2.30762
LeftToes  3.91355e-005 3.11907e-005 -4.10385e-006
668
root  5.06281 74.553 -29.1901 -179.249 20.1617 -176.609
RightUpLeg  -13.2193 5.23455 7.4905
RightLeg  21.5882 13.2096 5.49165
RightFoot  -6.6878 0.0920788 -3.41054
RightToes  2.84633e-005 7.89722e-005 -0.000426369
Spine  9.05233 0.265393 1.16883
Spine1  18.1389 0.297753 2.92724
HEad  34.1687 5.69486 -3.39305
LeftShoulder1  -3.88251e-019 0 -3.92111e-022
LeftArm  -32.8365 1.42337 -82.8128
LeftForeArm  29.1864 -4.92747 -2.20565
LeftHand  -1.02933 -5.88445 10.895
RightShoulder  7.45443e-017 -2.42657e-020 1.96277e-018
RightArm  -16.9997 9.18354 74.9652
RightForeArm  29.4032 8.4772 8.46019
RightHand  -1.7986 11.8206 -12.415
LeftUpLeg  -28.5165 3.52522 7.59606
LeftLeg  15.5448 0.152386 0.63099
LeftFoot  8.56444 -0.489594 2.48761
LeftToes  3.91355e-005 3.11907e-005 -4.10385e-006
669
root  4.89757 74.3817 -29.8277 -178.885 23.6714 -176.307
RightUpLeg  -13.6978 7.04461 7.3967
RightLeg  24.2178 14.3129 6.7324
RightFoot  -8.19713 0.0612016 -4.23344
RightToes  2.84633e-005 7.89722e-005 -0.000426369
Spine  9.49615 0.352936 0.394088
Spine1  19.0266 0.573321 1.62655
HEad  33.3535 8.32906 -2.64648
LeftShoulder1  -3.88251e-019 0 -3.92111e-022
LeftArm  -33.1665 1.78118 -81.221
LeftForeArm  27.1515 -3.72849 -2.1465
LeftHand  -1.04887 -5.86174 11.1156
RightShoulder  7.45443e-017 -2.42657e-020 1.96277e-018
RightArm  -16.7083 11.8136 76.8834
RightForeArm  33.4247 7.15415 7.59156
RightHand  -1.4605 10.993 -10.726
LeftUpLeg  -28.6328 3.91231 9.31533
LeftLeg  15.5915 3.20174 1.77383
LeftFoot  8.39051 -0.73425 3.95166
LeftToes  3.91355e-005 3.11907e-005 -4.10385e-006
670
root  4.66558 74.1465 -30.5228 -178.069 26.4013 -175.924
RightUpLeg  -15.0865 7.78009 7.01543
RightLeg  27.7892 15.6338 8.5637
RightFoot  -9.67029 -0.00145283 -4.35881
RightToes  2.84633e-005 7.89722e-005 -0.000426369
Spine  9.80996 0.473353 -0.130653
Spine1  19.6638 0.880572 0.627158
HEad  32.6696 9.49496 -2.25494
LeftShoulder1  -3.88251e-019 0 -3.92111e-022
LeftArm  -33.6726 1.23961 -80.4212
LeftForeArm  26.1307 -2.27664 -1.09009
LeftHand  -1.09277 -5.80959 11.6159
RightShoulder  7.45443e-017 -2.42657e-020 1.96277e-018
RightArm  -15.7608 12.6524 77.6339
RightForeArm  31.0132 8.20075 7.99902
RightHand  -1.88125 11.7366 -13.0581
LeftUpLeg  -29.3922 3.8392 10.4992
LeftLeg  18.7008 5.81166 2.57904
LeftFoot  7.32453 -0.794213 4.58913
LeftToes  3.91355e-005 3.11907e-005 -4.10385e-006
671
root  4.42496 73.9022 -31.2341 -177.067 27.7735 -175.321
RightUpLeg  -16.4817 8.08911 6.69179
RightLeg  31.073 16.1634 10.0582
RightFoot  -11.4078 -0.0797244 -4.62594
RightToes  2.84633e-005 7.89722e-005 -0.000426369
Spine  10.1617 0.286767 -0.371321
Spine1  20.3781 0.538021 0.0428088
HEad  32.009 10.3041 -2.17914
LeftShoulder1  -3.88251e-019 0 -3.92111e-022
LeftArm  -33.8511 0.0476872 -79.8299
LeftForeArm  24.1541 -0.728241 -0.369551
LeftHand  -1.17276 -5.99293 12.2453
RightShoulder  7.45443e-017 -2.42657e-020 1.96277e-018
RightArm  -11.5131 12.3081 77.2775
RightForeArm  25.8203 11.2907 9.10116
RightHand  -1.87177 12.1211 -12.7416
LeftUpLeg  -30.3053 4.10293 10.8958
LeftLeg  21.8129 6.62582 3.24609
LeftFoot  4.09782 -0.199275 1.28678
LeftToes  3.91355e-005 3.11907e-005 -4.10385e-006
672
root  4.15961 73.6935 -31.9162 -175.785 27.9261 -175.187
RightUpLeg  -18.2749 8.14383 5.80172
RightLeg  33.8405 16.0236 11.0487
RightFoot  -13.3483 -0.172951 -4.72267
RightToes  2.84633e-005 7.89722e-005 -0.000426369
Spine  10.3783 -0.19568 -0.572277
Spine1  20.8249 -0.389019 -0.481184
HEad  31.5914 10.5863 -1.80658
LeftShoulder1  -3.88251e-019 0 -3.92111e-022
LeftArm  -33.6284 -0.853245 -79.6569
LeftForeArm  22.9508 -0.541004 -0.0945303
LeftHand  -1.16358 -5.99382 12.1526
RightShoulder  7.45443e-017 -2.42657e-020 1.96277e-018
RightArm  -2.01282 11.5149 76.4079
RightForeArm  15.7166 16.1289 8.40261
RightHand  -1.86821 12.4075 -12.5148
LeftUpLeg  -32.2923 4.16358 10.3966
LeftLeg  24.8161 6.42943 3.57377
LeftFoot  2.01698 0.139101 -1.26612
LeftToes  3.91355e-005 3.11907e-005 -4.10385e-006
673
root  3.82916 73.4258 -32.5673 -174.263 26.2685 -175.819
RightUpLeg  -21.6898 5.30439 4.05126
RightLeg  38.5699 16.3685 13.33
RightFoot  -14.6803 -0.243368 -4.95504
RightToes  2.84633e-005 7.89722e-005 -0.000426369
Spine  10.4244 -0.696645 -0.649016
Spine1  20.9334 -1.37157 -0.557744
HEad  29.8808 9.05672 -1.75827
LeftShoulder1  -3.88251e-019 0 -3.92111e-022
LeftArm  -32.5236 -2.97645 -79.6733
LeftForeArm  23.1472 -0.387437 -0.374054
LeftHand  -1.12164 -6.22517 11.506
RightShoulder  7.45443e-017 -2.42657e-020 1.96277e-018
RightArm  3.65154 10.3965 74.453
RightForeArm  7.98707 19.8887 6.37548
RightHand  -2.10254 13.2539 -13.422
LeftUpLeg  -35.8359 2.72653 8.79064
LeftLeg  28.3997 6.05953 3.88845
LeftFoot  -0.29182 0.064498 -0.644623
LeftToes  3.91355e-005 3.11907e-005 -4.10385e-006
674
root  3.46763 73.183 -33.1688 -173.504 23.8248 -176.954
RightUpLeg  -25.5826 -0.867334 1.88223
RightLeg  45.7102 17.9807 18.5175
RightFoot  -13.4808 -0.177801 -5.2333
RightToes  2.84633e-005 7.89722e-005 -0.000426369
Spine  10.8001 -1.10543 -0.666196
Spine1  21.6863 -2.18209 -0.159697
HEad  27.1627 6.54494 -2.74624
LeftShoulder1  -3.88251e-019 0 -3.92111e-022
LeftArm  -31.3181 -6.3305 -80.7456
LeftForeArm  23.735 -0.502934 0.0251417
LeftHand  -1.14882 -6.09816 11.8998
RightShoulder  7.45443e-017 -2.42657e-020 1.96277e-018
RightArm  4.90822 8.69299 71.7115
RightForeArm  3.22636 22.9541 5.05633
RightHand  -1.95872 12.8189 -12.8221
LeftUpLeg  -38.3027 0.04035 6.90624
LeftLeg  30.599 6.09293 4.2335
LeftFoot  -1.86781 0.00509935 0.0741525
LeftToes  3.91355e-005 3.11907e-005 -4.10385e-006
